<svg width="1363" height="297" viewBox="0 0 1363 297" fill="none" xmlns="http://www.w3.org/2000/svg">
<path d="M0 15C0 6.71573 6.71573 0 15 0H37V297H15C6.71573 297 0 290.284 0 282V15Z" fill="#2F69A5"/>
<path d="M37 0H1066V297H37V0Z" fill="#F0F0F0"/>
<path d="M97.6934 49.4062H102.158L108.732 68.1973L115.307 49.4062H119.771L110.525 75H106.939L97.6934 49.4062ZM95.2852 49.4062H99.7324L100.541 67.7227V75H95.2852V49.4062ZM117.732 49.4062H122.197V75H116.924V67.7227L117.732 49.4062ZM125.695 65.6836V65.3145C125.695 63.9199 125.895 62.6367 126.293 61.4648C126.691 60.2812 127.271 59.2559 128.033 58.3887C128.795 57.5215 129.732 56.8477 130.846 56.3672C131.959 55.875 133.236 55.6289 134.678 55.6289C136.119 55.6289 137.402 55.875 138.527 56.3672C139.652 56.8477 140.596 57.5215 141.357 58.3887C142.131 59.2559 142.717 60.2812 143.115 61.4648C143.514 62.6367 143.713 63.9199 143.713 65.3145V65.6836C143.713 67.0664 143.514 68.3496 143.115 69.5332C142.717 70.7051 142.131 71.7305 141.357 72.6094C140.596 73.4766 139.658 74.1504 138.545 74.6309C137.432 75.1113 136.154 75.3516 134.713 75.3516C133.271 75.3516 131.988 75.1113 130.863 74.6309C129.75 74.1504 128.807 73.4766 128.033 72.6094C127.271 71.7305 126.691 70.7051 126.293 69.5332C125.895 68.3496 125.695 67.0664 125.695 65.6836ZM130.758 65.3145V65.6836C130.758 66.4805 130.828 67.2246 130.969 67.916C131.109 68.6074 131.332 69.2168 131.637 69.7441C131.953 70.2598 132.363 70.6641 132.867 70.957C133.371 71.25 133.986 71.3965 134.713 71.3965C135.416 71.3965 136.02 71.25 136.523 70.957C137.027 70.6641 137.432 70.2598 137.736 69.7441C138.041 69.2168 138.264 68.6074 138.404 67.916C138.557 67.2246 138.633 66.4805 138.633 65.6836V65.3145C138.633 64.541 138.557 63.8145 138.404 63.1348C138.264 62.4434 138.035 61.834 137.719 61.3066C137.414 60.7676 137.01 60.3457 136.506 60.041C136.002 59.7363 135.393 59.584 134.678 59.584C133.963 59.584 133.354 59.7363 132.85 60.041C132.357 60.3457 131.953 60.7676 131.637 61.3066C131.332 61.834 131.109 62.4434 130.969 63.1348C130.828 63.8145 130.758 64.541 130.758 65.3145ZM158.074 70.4473V55.9805H163.137V75H158.373L158.074 70.4473ZM158.637 66.5449L160.131 66.5098C160.131 67.7754 159.984 68.9531 159.691 70.043C159.398 71.1211 158.959 72.0586 158.373 72.8555C157.787 73.6406 157.049 74.2559 156.158 74.7012C155.268 75.1348 154.219 75.3516 153.012 75.3516C152.086 75.3516 151.23 75.2227 150.445 74.9648C149.672 74.6953 149.004 74.2793 148.441 73.7168C147.891 73.1426 147.457 72.4102 147.141 71.5195C146.836 70.6172 146.684 69.5332 146.684 68.2676V55.9805H151.746V68.3027C151.746 68.8652 151.811 69.3398 151.939 69.7266C152.08 70.1133 152.273 70.4297 152.52 70.6758C152.766 70.9219 153.053 71.0977 153.381 71.2031C153.721 71.3086 154.096 71.3613 154.506 71.3613C155.549 71.3613 156.369 71.1504 156.967 70.7285C157.576 70.3066 158.004 69.7324 158.25 69.0059C158.508 68.2676 158.637 67.4473 158.637 66.5449ZM177.287 69.7441C177.287 69.3809 177.182 69.0527 176.971 68.7598C176.76 68.4668 176.367 68.1973 175.793 67.9512C175.23 67.6934 174.416 67.459 173.35 67.248C172.389 67.0371 171.492 66.7734 170.66 66.457C169.84 66.1289 169.125 65.7363 168.516 65.2793C167.918 64.8223 167.449 64.2832 167.109 63.6621C166.77 63.0293 166.6 62.3086 166.6 61.5C166.6 60.7031 166.77 59.9531 167.109 59.25C167.461 58.5469 167.959 57.9258 168.604 57.3867C169.26 56.8359 170.057 56.4082 170.994 56.1035C171.943 55.7871 173.01 55.6289 174.193 55.6289C175.846 55.6289 177.264 55.8926 178.447 56.4199C179.643 56.9473 180.557 57.6738 181.189 58.5996C181.834 59.5137 182.156 60.5566 182.156 61.7285H177.094C177.094 61.2363 176.988 60.7969 176.777 60.4102C176.578 60.0117 176.262 59.7012 175.828 59.4785C175.406 59.2441 174.855 59.127 174.176 59.127C173.613 59.127 173.127 59.2266 172.717 59.4258C172.307 59.6133 171.99 59.8711 171.768 60.1992C171.557 60.5156 171.451 60.8672 171.451 61.2539C171.451 61.5469 171.51 61.8105 171.627 62.0449C171.756 62.2676 171.961 62.4727 172.242 62.6602C172.523 62.8477 172.887 63.0234 173.332 63.1875C173.789 63.3398 174.352 63.4805 175.02 63.6094C176.391 63.8906 177.615 64.2598 178.693 64.7168C179.771 65.1621 180.627 65.7715 181.26 66.5449C181.893 67.3066 182.209 68.3086 182.209 69.5508C182.209 70.3945 182.021 71.168 181.646 71.8711C181.271 72.5742 180.732 73.1895 180.029 73.7168C179.326 74.2324 178.482 74.6367 177.498 74.9297C176.525 75.2109 175.43 75.3516 174.211 75.3516C172.441 75.3516 170.941 75.0352 169.711 74.4023C168.492 73.7695 167.566 72.9668 166.934 71.9941C166.312 71.0098 166.002 70.002 166.002 68.9707H170.801C170.824 69.6621 171 70.2188 171.328 70.6406C171.668 71.0625 172.096 71.3672 172.611 71.5547C173.139 71.7422 173.707 71.8359 174.316 71.8359C174.973 71.8359 175.518 71.748 175.951 71.5723C176.385 71.3848 176.713 71.1387 176.936 70.834C177.17 70.5176 177.287 70.1543 177.287 69.7441ZM195.779 69.7441C195.779 69.3809 195.674 69.0527 195.463 68.7598C195.252 68.4668 194.859 68.1973 194.285 67.9512C193.723 67.6934 192.908 67.459 191.842 67.248C190.881 67.0371 189.984 66.7734 189.152 66.457C188.332 66.1289 187.617 65.7363 187.008 65.2793C186.41 64.8223 185.941 64.2832 185.602 63.6621C185.262 63.0293 185.092 62.3086 185.092 61.5C185.092 60.7031 185.262 59.9531 185.602 59.25C185.953 58.5469 186.451 57.9258 187.096 57.3867C187.752 56.8359 188.549 56.4082 189.486 56.1035C190.436 55.7871 191.502 55.6289 192.686 55.6289C194.338 55.6289 195.756 55.8926 196.939 56.4199C198.135 56.9473 199.049 57.6738 199.682 58.5996C200.326 59.5137 200.648 60.5566 200.648 61.7285H195.586C195.586 61.2363 195.48 60.7969 195.27 60.4102C195.07 60.0117 194.754 59.7012 194.32 59.4785C193.898 59.2441 193.348 59.127 192.668 59.127C192.105 59.127 191.619 59.2266 191.209 59.4258C190.799 59.6133 190.482 59.8711 190.26 60.1992C190.049 60.5156 189.943 60.8672 189.943 61.2539C189.943 61.5469 190.002 61.8105 190.119 62.0449C190.248 62.2676 190.453 62.4727 190.734 62.6602C191.016 62.8477 191.379 63.0234 191.824 63.1875C192.281 63.3398 192.844 63.4805 193.512 63.6094C194.883 63.8906 196.107 64.2598 197.186 64.7168C198.264 65.1621 199.119 65.7715 199.752 66.5449C200.385 67.3066 200.701 68.3086 200.701 69.5508C200.701 70.3945 200.514 71.168 200.139 71.8711C199.764 72.5742 199.225 73.1895 198.521 73.7168C197.818 74.2324 196.975 74.6367 195.99 74.9297C195.018 75.2109 193.922 75.3516 192.703 75.3516C190.934 75.3516 189.434 75.0352 188.203 74.4023C186.984 73.7695 186.059 72.9668 185.426 71.9941C184.805 71.0098 184.494 70.002 184.494 68.9707H189.293C189.316 69.6621 189.492 70.2188 189.82 70.6406C190.16 71.0625 190.588 71.3672 191.104 71.5547C191.631 71.7422 192.199 71.8359 192.809 71.8359C193.465 71.8359 194.01 71.748 194.443 71.5723C194.877 71.3848 195.205 71.1387 195.428 70.834C195.662 70.5176 195.779 70.1543 195.779 69.7441ZM214.254 70.7109V62.2383C214.254 61.6289 214.154 61.1074 213.955 60.6738C213.756 60.2285 213.445 59.8828 213.023 59.6367C212.613 59.3906 212.08 59.2676 211.424 59.2676C210.861 59.2676 210.375 59.3672 209.965 59.5664C209.555 59.7539 209.238 60.0293 209.016 60.3926C208.793 60.7441 208.682 61.1602 208.682 61.6406H203.619C203.619 60.832 203.807 60.0645 204.182 59.3379C204.557 58.6113 205.102 57.9727 205.816 57.4219C206.531 56.8594 207.381 56.4199 208.365 56.1035C209.361 55.7871 210.475 55.6289 211.705 55.6289C213.182 55.6289 214.494 55.875 215.643 56.3672C216.791 56.8594 217.693 57.5977 218.35 58.582C219.018 59.5664 219.352 60.7969 219.352 62.2734V70.4121C219.352 71.4551 219.416 72.3105 219.545 72.9785C219.674 73.6348 219.861 74.209 220.107 74.7012V75H214.992C214.746 74.4844 214.559 73.8398 214.43 73.0664C214.312 72.2812 214.254 71.4961 214.254 70.7109ZM214.922 63.416L214.957 66.2812H212.127C211.459 66.2812 210.879 66.3574 210.387 66.5098C209.895 66.6621 209.49 66.8789 209.174 67.1602C208.857 67.4297 208.623 67.7461 208.471 68.1094C208.33 68.4727 208.26 68.8711 208.26 69.3047C208.26 69.7383 208.359 70.1309 208.559 70.4824C208.758 70.8223 209.045 71.0918 209.42 71.291C209.795 71.4785 210.234 71.5723 210.738 71.5723C211.5 71.5723 212.162 71.4199 212.725 71.1152C213.287 70.8105 213.721 70.4355 214.025 69.9902C214.342 69.5449 214.506 69.123 214.518 68.7246L215.854 70.8691C215.666 71.3496 215.408 71.8477 215.08 72.3633C214.764 72.8789 214.359 73.3652 213.867 73.8223C213.375 74.2676 212.783 74.6367 212.092 74.9297C211.4 75.2109 210.58 75.3516 209.631 75.3516C208.424 75.3516 207.328 75.1113 206.344 74.6309C205.371 74.1387 204.598 73.4648 204.023 72.6094C203.461 71.7422 203.18 70.7578 203.18 69.6562C203.18 68.6602 203.367 67.7754 203.742 67.002C204.117 66.2285 204.668 65.5781 205.395 65.0508C206.133 64.5117 207.053 64.1074 208.154 63.8379C209.256 63.5566 210.533 63.416 211.986 63.416H214.922ZM249.604 59.8301V63.9434H236.244V59.8301H249.604ZM237.809 49.4062V75H232.535V49.4062H237.809ZM253.365 49.4062V75H248.109V49.4062H253.365ZM267.902 70.7109V62.2383C267.902 61.6289 267.803 61.1074 267.604 60.6738C267.404 60.2285 267.094 59.8828 266.672 59.6367C266.262 59.3906 265.729 59.2676 265.072 59.2676C264.51 59.2676 264.023 59.3672 263.613 59.5664C263.203 59.7539 262.887 60.0293 262.664 60.3926C262.441 60.7441 262.33 61.1602 262.33 61.6406H257.268C257.268 60.832 257.455 60.0645 257.83 59.3379C258.205 58.6113 258.75 57.9727 259.465 57.4219C260.18 56.8594 261.029 56.4199 262.014 56.1035C263.01 55.7871 264.123 55.6289 265.354 55.6289C266.83 55.6289 268.143 55.875 269.291 56.3672C270.439 56.8594 271.342 57.5977 271.998 58.582C272.666 59.5664 273 60.7969 273 62.2734V70.4121C273 71.4551 273.064 72.3105 273.193 72.9785C273.322 73.6348 273.51 74.209 273.756 74.7012V75H268.641C268.395 74.4844 268.207 73.8398 268.078 73.0664C267.961 72.2812 267.902 71.4961 267.902 70.7109ZM268.57 63.416L268.605 66.2812H265.775C265.107 66.2812 264.527 66.3574 264.035 66.5098C263.543 66.6621 263.139 66.8789 262.822 67.1602C262.506 67.4297 262.271 67.7461 262.119 68.1094C261.979 68.4727 261.908 68.8711 261.908 69.3047C261.908 69.7383 262.008 70.1309 262.207 70.4824C262.406 70.8223 262.693 71.0918 263.068 71.291C263.443 71.4785 263.883 71.5723 264.387 71.5723C265.148 71.5723 265.811 71.4199 266.373 71.1152C266.936 70.8105 267.369 70.4355 267.674 69.9902C267.99 69.5449 268.154 69.123 268.166 68.7246L269.502 70.8691C269.314 71.3496 269.057 71.8477 268.729 72.3633C268.412 72.8789 268.008 73.3652 267.516 73.8223C267.023 74.2676 266.432 74.6367 265.74 74.9297C265.049 75.2109 264.229 75.3516 263.279 75.3516C262.072 75.3516 260.977 75.1113 259.992 74.6309C259.02 74.1387 258.246 73.4648 257.672 72.6094C257.109 71.7422 256.828 70.7578 256.828 69.6562C256.828 68.6602 257.016 67.7754 257.391 67.002C257.766 66.2285 258.316 65.5781 259.043 65.0508C259.781 64.5117 260.701 64.1074 261.803 63.8379C262.904 63.5566 264.182 63.416 265.635 63.416H268.57ZM282.246 55.9805V75H277.166V55.9805H282.246ZM276.85 51.0234C276.85 50.2852 277.107 49.6758 277.623 49.1953C278.139 48.7148 278.83 48.4746 279.697 48.4746C280.553 48.4746 281.238 48.7148 281.754 49.1953C282.281 49.6758 282.545 50.2852 282.545 51.0234C282.545 51.7617 282.281 52.3711 281.754 52.8516C281.238 53.332 280.553 53.5723 279.697 53.5723C278.83 53.5723 278.139 53.332 277.623 52.8516C277.107 52.3711 276.85 51.7617 276.85 51.0234ZM297.662 70.8516V48H302.76V75H298.172L297.662 70.8516ZM285.639 65.7188V65.3496C285.639 63.8965 285.803 62.5781 286.131 61.3945C286.459 60.1992 286.939 59.1738 287.572 58.3184C288.205 57.4629 288.984 56.8008 289.91 56.332C290.836 55.8633 291.891 55.6289 293.074 55.6289C294.188 55.6289 295.16 55.8633 295.992 56.332C296.836 56.8008 297.551 57.4688 298.137 58.3359C298.734 59.1914 299.215 60.2051 299.578 61.377C299.941 62.5371 300.205 63.8086 300.369 65.1914V66C300.205 67.3242 299.941 68.5547 299.578 69.6914C299.215 70.8281 298.734 71.8242 298.137 72.6797C297.551 73.5234 296.836 74.1797 295.992 74.6484C295.148 75.1172 294.164 75.3516 293.039 75.3516C291.855 75.3516 290.801 75.1113 289.875 74.6309C288.961 74.1504 288.188 73.4766 287.555 72.6094C286.934 71.7422 286.459 70.7227 286.131 69.5508C285.803 68.3789 285.639 67.1016 285.639 65.7188ZM290.701 65.3496V65.7188C290.701 66.5039 290.76 67.2363 290.877 67.916C291.006 68.5957 291.211 69.1992 291.492 69.7266C291.785 70.2422 292.16 70.6465 292.617 70.9395C293.086 71.2207 293.654 71.3613 294.322 71.3613C295.189 71.3613 295.904 71.168 296.467 70.7812C297.029 70.3828 297.457 69.8379 297.75 69.1465C298.055 68.4551 298.23 67.6582 298.277 66.7559V64.4531C298.242 63.7148 298.137 63.0527 297.961 62.4668C297.797 61.8691 297.551 61.3594 297.223 60.9375C296.906 60.5156 296.508 60.1875 296.027 59.9531C295.559 59.7188 295.002 59.6016 294.357 59.6016C293.701 59.6016 293.139 59.7539 292.67 60.0586C292.201 60.3516 291.82 60.7559 291.527 61.2715C291.246 61.7871 291.035 62.3965 290.895 63.0996C290.766 63.791 290.701 64.541 290.701 65.3496ZM316.98 70.7109V62.2383C316.98 61.6289 316.881 61.1074 316.682 60.6738C316.482 60.2285 316.172 59.8828 315.75 59.6367C315.34 59.3906 314.807 59.2676 314.15 59.2676C313.588 59.2676 313.102 59.3672 312.691 59.5664C312.281 59.7539 311.965 60.0293 311.742 60.3926C311.52 60.7441 311.408 61.1602 311.408 61.6406H306.346C306.346 60.832 306.533 60.0645 306.908 59.3379C307.283 58.6113 307.828 57.9727 308.543 57.4219C309.258 56.8594 310.107 56.4199 311.092 56.1035C312.088 55.7871 313.201 55.6289 314.432 55.6289C315.908 55.6289 317.221 55.875 318.369 56.3672C319.518 56.8594 320.42 57.5977 321.076 58.582C321.744 59.5664 322.078 60.7969 322.078 62.2734V70.4121C322.078 71.4551 322.143 72.3105 322.271 72.9785C322.4 73.6348 322.588 74.209 322.834 74.7012V75H317.719C317.473 74.4844 317.285 73.8398 317.156 73.0664C317.039 72.2812 316.98 71.4961 316.98 70.7109ZM317.648 63.416L317.684 66.2812H314.854C314.186 66.2812 313.605 66.3574 313.113 66.5098C312.621 66.6621 312.217 66.8789 311.9 67.1602C311.584 67.4297 311.35 67.7461 311.197 68.1094C311.057 68.4727 310.986 68.8711 310.986 69.3047C310.986 69.7383 311.086 70.1309 311.285 70.4824C311.484 70.8223 311.771 71.0918 312.146 71.291C312.521 71.4785 312.961 71.5723 313.465 71.5723C314.227 71.5723 314.889 71.4199 315.451 71.1152C316.014 70.8105 316.447 70.4355 316.752 69.9902C317.068 69.5449 317.232 69.123 317.244 68.7246L318.58 70.8691C318.393 71.3496 318.135 71.8477 317.807 72.3633C317.49 72.8789 317.086 73.3652 316.594 73.8223C316.102 74.2676 315.51 74.6367 314.818 74.9297C314.127 75.2109 313.307 75.3516 312.357 75.3516C311.15 75.3516 310.055 75.1113 309.07 74.6309C308.098 74.1387 307.324 73.4648 306.75 72.6094C306.188 71.7422 305.906 70.7578 305.906 69.6562C305.906 68.6602 306.094 67.7754 306.469 67.002C306.844 66.2285 307.395 65.5781 308.121 65.0508C308.859 64.5117 309.779 64.1074 310.881 63.8379C311.982 63.5566 313.26 63.416 314.713 63.416H317.648ZM331.043 60.1289V75H325.98V55.9805H330.744L331.043 60.1289ZM336.773 55.8574L336.686 60.5508C336.439 60.5156 336.141 60.4863 335.789 60.4629C335.449 60.4277 335.139 60.4102 334.857 60.4102C334.143 60.4102 333.521 60.5039 332.994 60.6914C332.479 60.8672 332.045 61.1309 331.693 61.4824C331.354 61.834 331.096 62.2617 330.92 62.7656C330.756 63.2695 330.662 63.8438 330.639 64.4883L329.619 64.1719C329.619 62.9414 329.742 61.8105 329.988 60.7793C330.234 59.7363 330.592 58.8281 331.061 58.0547C331.541 57.2812 332.127 56.6836 332.818 56.2617C333.51 55.8398 334.301 55.6289 335.191 55.6289C335.473 55.6289 335.76 55.6523 336.053 55.6992C336.346 55.7344 336.586 55.7871 336.773 55.8574Z" fill="#888888"/>
<path d="M122.34 132.617V140H102.215V132.617H122.34ZM105.633 100.188V140H96.0352V100.188H105.633ZM141.316 132.562V120.367C141.316 119.529 141.198 118.809 140.961 118.207C140.724 117.605 140.35 117.141 139.84 116.812C139.329 116.466 138.646 116.293 137.789 116.293C137.096 116.293 136.504 116.411 136.012 116.648C135.52 116.885 135.146 117.241 134.891 117.715C134.635 118.189 134.508 118.79 134.508 119.52H125.293C125.293 118.152 125.594 116.885 126.195 115.719C126.815 114.534 127.69 113.504 128.82 112.629C129.969 111.754 131.336 111.079 132.922 110.605C134.526 110.113 136.312 109.867 138.281 109.867C140.633 109.867 142.729 110.259 144.57 111.043C146.43 111.827 147.897 113.003 148.973 114.57C150.048 116.12 150.586 118.07 150.586 120.422V132.535C150.586 134.467 150.695 135.935 150.914 136.938C151.133 137.922 151.443 138.788 151.844 139.535V140H142.602C142.164 139.089 141.836 137.977 141.617 136.664C141.417 135.333 141.316 133.966 141.316 132.562ZM142.438 121.926L142.492 126.848H138.418C137.561 126.848 136.832 126.966 136.23 127.203C135.647 127.44 135.173 127.768 134.809 128.188C134.462 128.589 134.207 129.044 134.043 129.555C133.897 130.065 133.824 130.603 133.824 131.168C133.824 131.715 133.952 132.207 134.207 132.645C134.48 133.064 134.845 133.392 135.301 133.629C135.757 133.866 136.267 133.984 136.832 133.984C137.853 133.984 138.719 133.793 139.43 133.41C140.159 133.009 140.715 132.526 141.098 131.961C141.48 131.396 141.672 130.867 141.672 130.375L143.695 134.148C143.331 134.878 142.911 135.616 142.438 136.363C141.982 137.111 141.408 137.803 140.715 138.441C140.04 139.061 139.211 139.572 138.227 139.973C137.242 140.355 136.048 140.547 134.645 140.547C132.822 140.547 131.145 140.173 129.613 139.426C128.1 138.678 126.888 137.639 125.977 136.309C125.065 134.96 124.609 133.41 124.609 131.66C124.609 130.129 124.883 128.762 125.43 127.559C125.995 126.355 126.842 125.335 127.973 124.496C129.103 123.658 130.543 123.02 132.293 122.582C134.043 122.145 136.103 121.926 138.473 121.926H142.438ZM172.98 132.809V110.414H182.223V140H173.582L172.98 132.809ZM173.855 126.793L176.262 126.738C176.262 128.725 176.025 130.566 175.551 132.262C175.077 133.939 174.375 135.397 173.445 136.637C172.534 137.876 171.404 138.842 170.055 139.535C168.724 140.21 167.184 140.547 165.434 140.547C163.975 140.547 162.635 140.346 161.414 139.945C160.211 139.526 159.172 138.879 158.297 138.004C157.422 137.111 156.738 135.971 156.246 134.586C155.772 133.182 155.535 131.505 155.535 129.555V110.414H164.75V129.609C164.75 130.266 164.832 130.831 164.996 131.305C165.16 131.779 165.397 132.18 165.707 132.508C166.017 132.818 166.4 133.055 166.855 133.219C167.329 133.365 167.867 133.438 168.469 133.438C169.854 133.438 170.939 133.146 171.723 132.562C172.507 131.979 173.053 131.186 173.363 130.184C173.691 129.181 173.855 128.051 173.855 126.793ZM196.359 116.73V140H187.145V110.414H195.785L196.359 116.73ZM195.266 124.195L193.105 124.25C193.105 121.99 193.379 119.975 193.926 118.207C194.473 116.421 195.247 114.908 196.25 113.668C197.253 112.428 198.447 111.49 199.832 110.852C201.236 110.195 202.794 109.867 204.508 109.867C205.875 109.867 207.124 110.068 208.254 110.469C209.402 110.87 210.387 111.517 211.207 112.41C212.046 113.303 212.684 114.488 213.121 115.965C213.577 117.423 213.805 119.228 213.805 121.379V140H204.535V121.352C204.535 120.167 204.371 119.264 204.043 118.645C203.715 118.007 203.241 117.569 202.621 117.332C202.001 117.095 201.245 116.977 200.352 116.977C199.404 116.977 198.602 117.159 197.945 117.523C197.289 117.888 196.76 118.398 196.359 119.055C195.977 119.693 195.694 120.449 195.512 121.324C195.348 122.199 195.266 123.156 195.266 124.195ZM231.414 133.438C232.271 133.438 233 133.283 233.602 132.973C234.221 132.645 234.686 132.189 234.996 131.605C235.324 131.004 235.479 130.284 235.461 129.445H244.129C244.147 131.669 243.6 133.62 242.488 135.297C241.395 136.956 239.9 138.25 238.004 139.18C236.126 140.091 234.003 140.547 231.633 140.547C229.318 140.547 227.294 140.173 225.562 139.426C223.831 138.66 222.382 137.603 221.215 136.254C220.066 134.887 219.201 133.292 218.617 131.469C218.052 129.646 217.77 127.668 217.77 125.535V124.906C217.77 122.773 218.052 120.796 218.617 118.973C219.201 117.132 220.066 115.536 221.215 114.188C222.382 112.82 223.822 111.763 225.535 111.016C227.267 110.25 229.281 109.867 231.578 109.867C234.039 109.867 236.208 110.332 238.086 111.262C239.982 112.191 241.467 113.54 242.543 115.309C243.618 117.077 244.147 119.219 244.129 121.734H235.461C235.479 120.841 235.342 120.039 235.051 119.328C234.759 118.617 234.303 118.052 233.684 117.633C233.082 117.195 232.307 116.977 231.359 116.977C230.411 116.977 229.646 117.186 229.062 117.605C228.479 118.025 228.033 118.608 227.723 119.355C227.431 120.085 227.23 120.923 227.121 121.871C227.03 122.819 226.984 123.831 226.984 124.906V125.535C226.984 126.629 227.03 127.659 227.121 128.625C227.23 129.573 227.44 130.411 227.75 131.141C228.06 131.852 228.507 132.417 229.09 132.836C229.673 133.237 230.448 133.438 231.414 133.438ZM257.09 98V140H247.875V98H257.09ZM255.996 124.195L253.836 124.25C253.836 122.172 254.091 120.258 254.602 118.508C255.112 116.758 255.841 115.236 256.789 113.941C257.737 112.647 258.876 111.645 260.207 110.934C261.538 110.223 263.014 109.867 264.637 109.867C266.095 109.867 267.426 110.077 268.629 110.496C269.85 110.915 270.898 111.59 271.773 112.52C272.667 113.449 273.35 114.661 273.824 116.156C274.316 117.651 274.562 119.474 274.562 121.625V140H265.293V121.57C265.293 120.367 265.12 119.438 264.773 118.781C264.445 118.107 263.971 117.642 263.352 117.387C262.732 117.113 261.975 116.977 261.082 116.977C260.007 116.977 259.132 117.159 258.457 117.523C257.783 117.888 257.263 118.398 256.898 119.055C256.552 119.693 256.315 120.449 256.188 121.324C256.06 122.199 255.996 123.156 255.996 124.195ZM289.41 110.414V140H280.168V110.414H289.41ZM279.621 102.785C279.621 101.473 280.095 100.397 281.043 99.5586C281.991 98.7201 283.221 98.3008 284.734 98.3008C286.247 98.3008 287.478 98.7201 288.426 99.5586C289.374 100.397 289.848 101.473 289.848 102.785C289.848 104.098 289.374 105.173 288.426 106.012C287.478 106.85 286.247 107.27 284.734 107.27C283.221 107.27 281.991 106.85 281.043 106.012C280.095 105.173 279.621 104.098 279.621 102.785ZM306.391 140H297.121V108.008C297.121 105.711 297.586 103.779 298.516 102.211C299.445 100.643 300.758 99.4583 302.453 98.6562C304.148 97.8359 306.154 97.4258 308.469 97.4258C309.271 97.4258 310.027 97.4805 310.738 97.5898C311.449 97.6992 312.142 97.8359 312.816 98L312.844 104.781C312.516 104.69 312.178 104.626 311.832 104.59C311.486 104.553 311.057 104.535 310.547 104.535C309.654 104.535 308.897 104.672 308.277 104.945C307.658 105.201 307.184 105.592 306.855 106.121C306.546 106.632 306.391 107.26 306.391 108.008V140ZM312.133 110.414V116.812H292.855V110.414H312.133ZM324.52 136.527L332.176 110.414H342.074L330.18 144.402C329.924 145.15 329.587 145.952 329.168 146.809C328.749 147.684 328.174 148.513 327.445 149.297C326.716 150.081 325.777 150.719 324.629 151.211C323.499 151.703 322.095 151.949 320.418 151.949C319.525 151.949 318.868 151.904 318.449 151.812C318.048 151.74 317.428 151.603 316.59 151.402V144.812C316.827 144.812 317.027 144.812 317.191 144.812C317.374 144.812 317.574 144.812 317.793 144.812C318.777 144.812 319.561 144.712 320.145 144.512C320.746 144.311 321.202 144.02 321.512 143.637C321.84 143.254 322.095 142.789 322.277 142.242L324.52 136.527ZM322.578 110.414L328.402 131.113L329.414 140.875H323.234L312.707 110.414H322.578Z" fill="black"/>
<rect x="93" y="178" width="917" height="77" rx="10" fill="#D3D3D3"/>
<rect x="111" y="196" width="104" height="41" rx="3" fill="#424242"/>
<rect x="111" y="196" width="104" height="41" rx="3" stroke="#424242" stroke-width="4"/>
<path d="M142.812 220.627V223H136.343V220.627H142.812ZM137.441 210.203V223H134.356V210.203H137.441ZM148.911 220.609V216.689C148.911 216.42 148.873 216.188 148.797 215.995C148.721 215.802 148.601 215.652 148.437 215.547C148.272 215.436 148.053 215.38 147.777 215.38C147.555 215.38 147.364 215.418 147.206 215.494C147.048 215.57 146.928 215.685 146.846 215.837C146.764 215.989 146.723 216.183 146.723 216.417H143.761C143.761 215.978 143.857 215.57 144.051 215.195C144.25 214.814 144.531 214.483 144.895 214.202C145.264 213.921 145.703 213.704 146.213 213.552C146.729 213.394 147.303 213.314 147.936 213.314C148.691 213.314 149.365 213.44 149.957 213.692C150.555 213.944 151.026 214.322 151.372 214.826C151.718 215.324 151.891 215.951 151.891 216.707V220.601C151.891 221.222 151.926 221.693 151.996 222.016C152.066 222.332 152.166 222.61 152.295 222.851V223H149.324C149.184 222.707 149.078 222.35 149.008 221.928C148.943 221.5 148.911 221.061 148.911 220.609ZM149.271 217.19L149.289 218.772H147.979C147.704 218.772 147.47 218.811 147.276 218.887C147.089 218.963 146.937 219.068 146.819 219.203C146.708 219.332 146.626 219.479 146.573 219.643C146.526 219.807 146.503 219.979 146.503 220.161C146.503 220.337 146.544 220.495 146.626 220.636C146.714 220.771 146.831 220.876 146.978 220.952C147.124 221.028 147.288 221.066 147.47 221.066C147.798 221.066 148.076 221.005 148.305 220.882C148.539 220.753 148.718 220.598 148.841 220.416C148.964 220.234 149.025 220.064 149.025 219.906L149.676 221.119C149.559 221.354 149.424 221.591 149.271 221.831C149.125 222.071 148.94 222.294 148.718 222.499C148.501 222.698 148.234 222.862 147.918 222.991C147.602 223.114 147.218 223.176 146.767 223.176C146.181 223.176 145.642 223.056 145.149 222.815C144.663 222.575 144.273 222.241 143.98 221.813C143.688 221.38 143.541 220.882 143.541 220.319C143.541 219.827 143.629 219.388 143.805 219.001C143.986 218.614 144.259 218.286 144.622 218.017C144.985 217.747 145.448 217.542 146.011 217.401C146.573 217.261 147.235 217.19 147.997 217.19H149.271ZM156.522 215.846V223H153.561V213.49H156.329L156.522 215.846ZM159.335 213.42L159.282 216.171C159.165 216.159 159.007 216.145 158.808 216.127C158.608 216.109 158.441 216.101 158.307 216.101C157.961 216.101 157.662 216.142 157.41 216.224C157.164 216.3 156.959 216.417 156.795 216.575C156.637 216.728 156.52 216.921 156.443 217.155C156.373 217.39 156.341 217.662 156.347 217.973L155.811 217.621C155.811 216.982 155.872 216.402 155.995 215.881C156.124 215.354 156.306 214.899 156.54 214.519C156.774 214.132 157.059 213.836 157.393 213.631C157.727 213.42 158.102 213.314 158.518 213.314C158.664 213.314 158.808 213.323 158.948 213.341C159.095 213.358 159.224 213.385 159.335 213.42ZM165.03 220.609V216.689C165.03 216.42 164.992 216.188 164.916 215.995C164.84 215.802 164.72 215.652 164.556 215.547C164.392 215.436 164.172 215.38 163.896 215.38C163.674 215.38 163.483 215.418 163.325 215.494C163.167 215.57 163.047 215.685 162.965 215.837C162.883 215.989 162.842 216.183 162.842 216.417H159.88C159.88 215.978 159.977 215.57 160.17 215.195C160.369 214.814 160.65 214.483 161.014 214.202C161.383 213.921 161.822 213.704 162.332 213.552C162.848 213.394 163.422 213.314 164.055 213.314C164.811 213.314 165.484 213.44 166.076 213.692C166.674 213.944 167.146 214.322 167.491 214.826C167.837 215.324 168.01 215.951 168.01 216.707V220.601C168.01 221.222 168.045 221.693 168.115 222.016C168.186 222.332 168.285 222.61 168.414 222.851V223H165.443C165.303 222.707 165.197 222.35 165.127 221.928C165.062 221.5 165.03 221.061 165.03 220.609ZM165.391 217.19L165.408 218.772H164.099C163.823 218.772 163.589 218.811 163.396 218.887C163.208 218.963 163.056 219.068 162.938 219.203C162.827 219.332 162.745 219.479 162.692 219.643C162.646 219.807 162.622 219.979 162.622 220.161C162.622 220.337 162.663 220.495 162.745 220.636C162.833 220.771 162.95 220.876 163.097 220.952C163.243 221.028 163.407 221.066 163.589 221.066C163.917 221.066 164.195 221.005 164.424 220.882C164.658 220.753 164.837 220.598 164.96 220.416C165.083 220.234 165.145 220.064 165.145 219.906L165.795 221.119C165.678 221.354 165.543 221.591 165.391 221.831C165.244 222.071 165.06 222.294 164.837 222.499C164.62 222.698 164.354 222.862 164.037 222.991C163.721 223.114 163.337 223.176 162.886 223.176C162.3 223.176 161.761 223.056 161.269 222.815C160.782 222.575 160.393 222.241 160.1 221.813C159.807 221.38 159.66 220.882 159.66 220.319C159.66 219.827 159.748 219.388 159.924 219.001C160.105 218.614 160.378 218.286 160.741 218.017C161.104 217.747 161.567 217.542 162.13 217.401C162.692 217.261 163.354 217.19 164.116 217.19H165.391ZM172.94 220.97L174.812 213.49H177.933L174.821 223H172.976L172.94 220.97ZM171.833 213.49L173.679 220.97L173.661 223H171.807L168.704 213.49H171.833ZM183.294 223.176C182.521 223.176 181.829 223.056 181.22 222.815C180.61 222.569 180.095 222.232 179.673 221.805C179.257 221.377 178.938 220.885 178.715 220.328C178.498 219.771 178.39 219.183 178.39 218.562V218.228C178.39 217.53 178.486 216.886 178.68 216.294C178.873 215.696 179.16 215.175 179.541 214.729C179.922 214.284 180.399 213.938 180.974 213.692C181.548 213.44 182.216 213.314 182.978 213.314C183.651 213.314 184.255 213.423 184.788 213.64C185.321 213.856 185.772 214.167 186.142 214.571C186.517 214.976 186.801 215.465 186.994 216.039C187.193 216.613 187.293 217.258 187.293 217.973V219.177H179.523V217.322H184.401V217.094C184.407 216.777 184.352 216.508 184.234 216.285C184.123 216.062 183.959 215.893 183.742 215.775C183.525 215.658 183.262 215.6 182.951 215.6C182.629 215.6 182.362 215.67 182.151 215.811C181.946 215.951 181.785 216.145 181.668 216.391C181.557 216.631 181.478 216.909 181.431 217.226C181.384 217.542 181.36 217.876 181.36 218.228V218.562C181.36 218.913 181.407 219.232 181.501 219.52C181.601 219.807 181.741 220.053 181.923 220.258C182.11 220.457 182.333 220.612 182.591 220.724C182.854 220.835 183.153 220.891 183.487 220.891C183.892 220.891 184.29 220.814 184.683 220.662C185.075 220.51 185.412 220.258 185.693 219.906L187.038 221.506C186.845 221.781 186.569 222.048 186.212 222.306C185.86 222.563 185.438 222.774 184.946 222.938C184.454 223.097 183.903 223.176 183.294 223.176ZM191.626 209.5V223H188.655V209.5H191.626Z" fill="white"/>
<rect x="235" y="196" width="113" height="41" rx="3" fill="#424242"/>
<rect x="235" y="196" width="113" height="41" rx="3" stroke="#424242" stroke-width="4"/>
<path d="M258.444 210.203H263.48C264.465 210.203 265.32 210.35 266.047 210.643C266.773 210.936 267.333 211.369 267.726 211.943C268.124 212.518 268.323 213.227 268.323 214.07C268.323 214.803 268.209 215.415 267.98 215.907C267.752 216.399 267.433 216.807 267.022 217.129C266.618 217.445 266.146 217.706 265.607 217.911L264.597 218.482H260.369L260.352 216.101H263.48C263.873 216.101 264.198 216.03 264.456 215.89C264.714 215.749 264.907 215.55 265.036 215.292C265.171 215.028 265.238 214.715 265.238 214.352C265.238 213.982 265.171 213.666 265.036 213.402C264.901 213.139 264.702 212.937 264.438 212.796C264.181 212.655 263.861 212.585 263.48 212.585H261.529V223H258.444V210.203ZM265.449 223L262.619 217.34L265.889 217.322L268.754 222.868V223H265.449ZM274.651 223.176C273.878 223.176 273.187 223.056 272.577 222.815C271.968 222.569 271.452 222.232 271.03 221.805C270.614 221.377 270.295 220.885 270.072 220.328C269.855 219.771 269.747 219.183 269.747 218.562V218.228C269.747 217.53 269.844 216.886 270.037 216.294C270.23 215.696 270.518 215.175 270.898 214.729C271.279 214.284 271.757 213.938 272.331 213.692C272.905 213.44 273.573 213.314 274.335 213.314C275.009 213.314 275.612 213.423 276.146 213.64C276.679 213.856 277.13 214.167 277.499 214.571C277.874 214.976 278.158 215.465 278.352 216.039C278.551 216.613 278.65 217.258 278.65 217.973V219.177H270.881V217.322H275.759V217.094C275.765 216.777 275.709 216.508 275.592 216.285C275.48 216.062 275.316 215.893 275.1 215.775C274.883 215.658 274.619 215.6 274.309 215.6C273.986 215.6 273.72 215.67 273.509 215.811C273.304 215.951 273.143 216.145 273.025 216.391C272.914 216.631 272.835 216.909 272.788 217.226C272.741 217.542 272.718 217.876 272.718 218.228V218.562C272.718 218.913 272.765 219.232 272.858 219.52C272.958 219.807 273.099 220.053 273.28 220.258C273.468 220.457 273.69 220.612 273.948 220.724C274.212 220.835 274.511 220.891 274.845 220.891C275.249 220.891 275.647 220.814 276.04 220.662C276.433 220.51 276.77 220.258 277.051 219.906L278.396 221.506C278.202 221.781 277.927 222.048 277.569 222.306C277.218 222.563 276.796 222.774 276.304 222.938C275.812 223.097 275.261 223.176 274.651 223.176ZM284.794 220.609V216.689C284.794 216.42 284.756 216.188 284.68 215.995C284.604 215.802 284.483 215.652 284.319 215.547C284.155 215.436 283.936 215.38 283.66 215.38C283.438 215.38 283.247 215.418 283.089 215.494C282.931 215.57 282.811 215.685 282.729 215.837C282.646 215.989 282.605 216.183 282.605 216.417H279.644C279.644 215.978 279.74 215.57 279.934 215.195C280.133 214.814 280.414 214.483 280.777 214.202C281.146 213.921 281.586 213.704 282.096 213.552C282.611 213.394 283.186 213.314 283.818 213.314C284.574 213.314 285.248 213.44 285.84 213.692C286.438 213.944 286.909 214.322 287.255 214.826C287.601 215.324 287.773 215.951 287.773 216.707V220.601C287.773 221.222 287.809 221.693 287.879 222.016C287.949 222.332 288.049 222.61 288.178 222.851V223H285.207C285.066 222.707 284.961 222.35 284.891 221.928C284.826 221.5 284.794 221.061 284.794 220.609ZM285.154 217.19L285.172 218.772H283.862C283.587 218.772 283.353 218.811 283.159 218.887C282.972 218.963 282.819 219.068 282.702 219.203C282.591 219.332 282.509 219.479 282.456 219.643C282.409 219.807 282.386 219.979 282.386 220.161C282.386 220.337 282.427 220.495 282.509 220.636C282.597 220.771 282.714 220.876 282.86 220.952C283.007 221.028 283.171 221.066 283.353 221.066C283.681 221.066 283.959 221.005 284.188 220.882C284.422 220.753 284.601 220.598 284.724 220.416C284.847 220.234 284.908 220.064 284.908 219.906L285.559 221.119C285.441 221.354 285.307 221.591 285.154 221.831C285.008 222.071 284.823 222.294 284.601 222.499C284.384 222.698 284.117 222.862 283.801 222.991C283.484 223.114 283.101 223.176 282.649 223.176C282.063 223.176 281.524 223.056 281.032 222.815C280.546 222.575 280.156 222.241 279.863 221.813C279.57 221.38 279.424 220.882 279.424 220.319C279.424 219.827 279.512 219.388 279.688 219.001C279.869 218.614 280.142 218.286 280.505 218.017C280.868 217.747 281.331 217.542 281.894 217.401C282.456 217.261 283.118 217.19 283.88 217.19H285.154ZM293.434 220.891C293.709 220.891 293.943 220.841 294.137 220.741C294.336 220.636 294.485 220.489 294.585 220.302C294.69 220.108 294.74 219.877 294.734 219.607H297.521C297.526 220.322 297.351 220.949 296.993 221.488C296.642 222.021 296.161 222.438 295.552 222.736C294.948 223.029 294.266 223.176 293.504 223.176C292.76 223.176 292.109 223.056 291.553 222.815C290.996 222.569 290.53 222.229 290.155 221.796C289.786 221.356 289.508 220.844 289.32 220.258C289.139 219.672 289.048 219.036 289.048 218.351V218.148C289.048 217.463 289.139 216.827 289.32 216.241C289.508 215.649 289.786 215.137 290.155 214.703C290.53 214.264 290.993 213.924 291.544 213.684C292.101 213.438 292.748 213.314 293.486 213.314C294.277 213.314 294.975 213.464 295.578 213.763C296.188 214.062 296.665 214.495 297.011 215.063C297.356 215.632 297.526 216.32 297.521 217.129H294.734C294.74 216.842 294.696 216.584 294.603 216.355C294.509 216.127 294.362 215.945 294.163 215.811C293.97 215.67 293.721 215.6 293.416 215.6C293.111 215.6 292.865 215.667 292.678 215.802C292.49 215.937 292.347 216.124 292.247 216.364C292.153 216.599 292.089 216.868 292.054 217.173C292.024 217.478 292.01 217.803 292.01 218.148V218.351C292.01 218.702 292.024 219.033 292.054 219.344C292.089 219.648 292.156 219.918 292.256 220.152C292.355 220.381 292.499 220.562 292.687 220.697C292.874 220.826 293.123 220.891 293.434 220.891ZM303.796 213.49V215.547H298.065V213.49H303.796ZM299.27 211.126H302.231V219.897C302.231 220.149 302.261 220.346 302.319 220.486C302.378 220.621 302.478 220.718 302.618 220.776C302.765 220.829 302.958 220.855 303.198 220.855C303.368 220.855 303.509 220.853 303.62 220.847C303.731 220.835 303.837 220.82 303.937 220.803V222.921C303.685 223.003 303.421 223.064 303.146 223.105C302.87 223.152 302.577 223.176 302.267 223.176C301.634 223.176 301.092 223.076 300.641 222.877C300.195 222.678 299.855 222.364 299.621 221.937C299.387 221.509 299.27 220.952 299.27 220.267V211.126ZM310.203 218.983V210.203H313.279V218.983C313.279 219.839 313.083 220.58 312.69 221.207C312.304 221.834 311.776 222.32 311.108 222.666C310.446 223.006 309.702 223.176 308.876 223.176C308.021 223.176 307.259 223.032 306.591 222.745C305.929 222.458 305.407 222.016 305.026 221.418C304.651 220.82 304.464 220.059 304.464 219.133H307.558C307.558 219.566 307.607 219.906 307.707 220.152C307.807 220.393 307.953 220.562 308.146 220.662C308.346 220.756 308.589 220.803 308.876 220.803C309.157 220.803 309.395 220.732 309.588 220.592C309.787 220.445 309.939 220.237 310.045 219.968C310.15 219.692 310.203 219.364 310.203 218.983ZM321.831 219.599C321.831 219.399 321.802 219.221 321.743 219.062C321.685 218.898 321.576 218.746 321.418 218.605C321.26 218.465 321.031 218.324 320.732 218.184C320.439 218.037 320.053 217.885 319.572 217.727C319.01 217.539 318.468 217.328 317.946 217.094C317.425 216.854 316.959 216.575 316.549 216.259C316.139 215.937 315.813 215.562 315.573 215.134C315.333 214.7 315.213 214.196 315.213 213.622C315.213 213.071 315.336 212.576 315.582 212.137C315.828 211.691 316.171 211.313 316.61 211.003C317.056 210.687 317.577 210.446 318.175 210.282C318.772 210.112 319.426 210.027 320.135 210.027C321.072 210.027 321.898 210.191 322.613 210.52C323.334 210.842 323.896 211.302 324.301 211.899C324.711 212.491 324.916 213.191 324.916 214H321.849C321.849 213.678 321.781 213.394 321.646 213.147C321.518 212.901 321.321 212.708 321.058 212.567C320.794 212.427 320.463 212.356 320.064 212.356C319.678 212.356 319.353 212.415 319.089 212.532C318.825 212.649 318.626 212.808 318.491 213.007C318.356 213.2 318.289 213.414 318.289 213.648C318.289 213.842 318.342 214.018 318.447 214.176C318.559 214.328 318.714 214.472 318.913 214.606C319.118 214.741 319.364 214.87 319.651 214.993C319.944 215.116 320.272 215.236 320.636 215.354C321.315 215.57 321.919 215.813 322.446 216.083C322.979 216.347 323.428 216.648 323.791 216.988C324.16 217.322 324.438 217.703 324.626 218.131C324.819 218.559 324.916 219.042 324.916 219.581C324.916 220.155 324.805 220.665 324.582 221.11C324.359 221.556 324.04 221.934 323.624 222.244C323.208 222.549 322.71 222.78 322.13 222.938C321.55 223.097 320.902 223.176 320.188 223.176C319.531 223.176 318.884 223.094 318.245 222.93C317.612 222.76 317.038 222.502 316.522 222.156C316.007 221.805 315.594 221.356 315.283 220.812C314.979 220.261 314.826 219.607 314.826 218.852H317.92C317.92 219.227 317.97 219.543 318.069 219.801C318.169 220.059 318.315 220.267 318.509 220.425C318.702 220.577 318.939 220.688 319.221 220.759C319.502 220.823 319.824 220.855 320.188 220.855C320.58 220.855 320.896 220.8 321.137 220.688C321.377 220.571 321.553 220.419 321.664 220.231C321.775 220.038 321.831 219.827 321.831 219.599Z" fill="white"/>
<rect x="368" y="196" width="94" height="41" rx="3" fill="#424242"/>
<rect x="368" y="196" width="94" height="41" rx="3" stroke="#424242" stroke-width="4"/>
<path d="M392.79 210.203H395.304L398.16 219.106L401.017 210.203H403.53L399.18 223H397.141L392.79 210.203ZM391.261 210.203H393.862L394.346 220.012V223H391.261V210.203ZM402.458 210.203H405.068V223H401.975V220.012L402.458 210.203ZM409.823 221.884L412.284 213.49H415.466L411.643 224.415C411.561 224.655 411.452 224.913 411.317 225.188C411.183 225.47 410.998 225.736 410.764 225.988C410.529 226.24 410.228 226.445 409.858 226.604C409.495 226.762 409.044 226.841 408.505 226.841C408.218 226.841 408.007 226.826 407.872 226.797C407.743 226.773 407.544 226.729 407.274 226.665V224.547C407.351 224.547 407.415 224.547 407.468 224.547C407.526 224.547 407.591 224.547 407.661 224.547C407.978 224.547 408.229 224.515 408.417 224.45C408.61 224.386 408.757 224.292 408.856 224.169C408.962 224.046 409.044 223.896 409.103 223.721L409.823 221.884ZM409.199 213.49L411.071 220.144L411.396 223.281H409.41L406.026 213.49H409.199ZM421.223 220.328C421.223 220.164 421.167 220.023 421.056 219.906C420.95 219.783 420.763 219.672 420.493 219.572C420.224 219.467 419.846 219.361 419.359 219.256C418.896 219.156 418.46 219.024 418.05 218.86C417.646 218.696 417.291 218.497 416.986 218.263C416.682 218.028 416.441 217.75 416.266 217.428C416.096 217.105 416.011 216.736 416.011 216.32C416.011 215.916 416.096 215.535 416.266 215.178C416.441 214.814 416.696 214.495 417.03 214.22C417.37 213.938 417.783 213.719 418.27 213.561C418.756 213.396 419.31 213.314 419.931 213.314C420.786 213.314 421.524 213.446 422.146 213.71C422.767 213.968 423.244 214.331 423.578 214.8C423.918 215.263 424.088 215.799 424.088 216.408H421.126C421.126 216.168 421.085 215.963 421.003 215.793C420.927 215.623 420.801 215.494 420.625 215.406C420.449 215.312 420.215 215.266 419.922 215.266C419.717 215.266 419.529 215.304 419.359 215.38C419.195 215.456 419.063 215.562 418.964 215.696C418.864 215.831 418.814 215.989 418.814 216.171C418.814 216.3 418.844 216.417 418.902 216.522C418.967 216.622 419.063 216.716 419.192 216.804C419.321 216.886 419.485 216.962 419.685 217.032C419.884 217.097 420.124 217.155 420.405 217.208C421.044 217.325 421.642 217.492 422.198 217.709C422.755 217.926 423.206 218.233 423.552 218.632C423.903 219.03 424.079 219.566 424.079 220.24C424.079 220.662 423.982 221.052 423.789 221.409C423.596 221.761 423.317 222.071 422.954 222.341C422.591 222.604 422.154 222.81 421.645 222.956C421.135 223.103 420.561 223.176 419.922 223.176C419.014 223.176 418.246 223.015 417.619 222.692C416.992 222.364 416.518 221.954 416.195 221.462C415.879 220.964 415.721 220.46 415.721 219.95H418.48C418.492 220.243 418.562 220.483 418.691 220.671C418.826 220.858 419.005 220.996 419.228 221.084C419.45 221.172 419.708 221.216 420.001 221.216C420.271 221.216 420.493 221.178 420.669 221.102C420.851 221.025 420.988 220.923 421.082 220.794C421.176 220.659 421.223 220.504 421.223 220.328ZM430.935 226.656V215.485L431.348 213.49H433.914V226.656H430.935ZM425.099 218.333V218.148C425.099 217.428 425.178 216.771 425.336 216.18C425.494 215.582 425.729 215.072 426.039 214.65C426.35 214.223 426.733 213.895 427.19 213.666C427.653 213.432 428.187 213.314 428.79 213.314C429.358 213.314 429.845 213.438 430.249 213.684C430.659 213.93 431.002 214.275 431.277 214.721C431.553 215.16 431.775 215.676 431.945 216.268C432.121 216.859 432.259 217.498 432.358 218.184V218.403C432.259 219.048 432.121 219.657 431.945 220.231C431.775 220.806 431.553 221.315 431.277 221.761C431.002 222.2 430.659 222.546 430.249 222.798C429.839 223.05 429.347 223.176 428.772 223.176C428.175 223.176 427.647 223.056 427.19 222.815C426.733 222.569 426.35 222.229 426.039 221.796C425.729 221.356 425.494 220.844 425.336 220.258C425.178 219.666 425.099 219.024 425.099 218.333ZM428.061 218.148V218.333C428.061 218.69 428.084 219.024 428.131 219.335C428.178 219.64 428.257 219.909 428.368 220.144C428.485 220.378 428.638 220.562 428.825 220.697C429.013 220.826 429.247 220.891 429.528 220.891C429.956 220.891 430.293 220.797 430.539 220.609C430.785 220.422 430.958 220.161 431.058 219.827C431.157 219.487 431.198 219.092 431.181 218.641V217.946C431.187 217.56 431.163 217.22 431.11 216.927C431.058 216.634 430.967 216.391 430.838 216.197C430.715 215.998 430.548 215.849 430.337 215.749C430.126 215.649 429.862 215.6 429.546 215.6C429.271 215.6 429.036 215.664 428.843 215.793C428.655 215.916 428.503 216.092 428.386 216.32C428.274 216.549 428.192 216.818 428.14 217.129C428.087 217.439 428.061 217.779 428.061 218.148ZM438.722 209.5V223H435.751V209.5H438.722Z" fill="white"/>
<rect x="482" y="196" width="83" height="41" rx="3" fill="#424242"/>
<rect x="482" y="196" width="83" height="41" rx="3" stroke="#424242" stroke-width="4"/>
<path d="M510.483 212.893L507.363 223H504.05L508.752 210.203H510.853L510.483 212.893ZM513.067 223L509.938 212.893L509.534 210.203H511.661L516.39 223H513.067ZM512.944 218.228V220.609H506.379V218.228H512.944ZM519.932 221.84L522.48 210.203H524.001L524.827 211.196L522.111 223H520.433L519.932 221.84ZM519.255 210.203L521.408 221.928L520.854 223H518.912L516.196 210.203H519.255ZM526.225 221.866L528.36 210.203H531.41L528.694 223H526.761L526.225 221.866ZM525.1 210.203L527.71 221.91L527.183 223H525.504L522.727 211.179L523.588 210.203H525.1ZM539.215 219.599C539.215 219.399 539.186 219.221 539.127 219.062C539.068 218.898 538.96 218.746 538.802 218.605C538.644 218.465 538.415 218.324 538.116 218.184C537.823 218.037 537.437 217.885 536.956 217.727C536.394 217.539 535.852 217.328 535.33 217.094C534.809 216.854 534.343 216.575 533.933 216.259C533.522 215.937 533.197 215.562 532.957 215.134C532.717 214.7 532.597 214.196 532.597 213.622C532.597 213.071 532.72 212.576 532.966 212.137C533.212 211.691 533.555 211.313 533.994 211.003C534.439 210.687 534.961 210.446 535.559 210.282C536.156 210.112 536.81 210.027 537.519 210.027C538.456 210.027 539.282 210.191 539.997 210.52C540.718 210.842 541.28 211.302 541.685 211.899C542.095 212.491 542.3 213.191 542.3 214H539.232C539.232 213.678 539.165 213.394 539.03 213.147C538.901 212.901 538.705 212.708 538.441 212.567C538.178 212.427 537.847 212.356 537.448 212.356C537.062 212.356 536.736 212.415 536.473 212.532C536.209 212.649 536.01 212.808 535.875 213.007C535.74 213.2 535.673 213.414 535.673 213.648C535.673 213.842 535.726 214.018 535.831 214.176C535.942 214.328 536.098 214.472 536.297 214.606C536.502 214.741 536.748 214.87 537.035 214.993C537.328 215.116 537.656 215.236 538.02 215.354C538.699 215.57 539.303 215.813 539.83 216.083C540.363 216.347 540.812 216.648 541.175 216.988C541.544 217.322 541.822 217.703 542.01 218.131C542.203 218.559 542.3 219.042 542.3 219.581C542.3 220.155 542.188 220.665 541.966 221.11C541.743 221.556 541.424 221.934 541.008 222.244C540.592 222.549 540.094 222.78 539.514 222.938C538.934 223.097 538.286 223.176 537.571 223.176C536.915 223.176 536.268 223.094 535.629 222.93C534.996 222.76 534.422 222.502 533.906 222.156C533.391 221.805 532.978 221.356 532.667 220.812C532.362 220.261 532.21 219.607 532.21 218.852H535.304C535.304 219.227 535.354 219.543 535.453 219.801C535.553 220.059 535.699 220.267 535.893 220.425C536.086 220.577 536.323 220.688 536.604 220.759C536.886 220.823 537.208 220.855 537.571 220.855C537.964 220.855 538.28 220.8 538.521 220.688C538.761 220.571 538.937 220.419 539.048 220.231C539.159 220.038 539.215 219.827 539.215 219.599Z" fill="white"/>
<rect x="585" y="196" width="62" height="41" rx="3" fill="#424242"/>
<rect x="585" y="196" width="62" height="41" rx="3" stroke="#424242" stroke-width="4"/>
<path d="M613.539 212.893L610.419 223H607.105L611.808 210.203H613.908L613.539 212.893ZM616.123 223L612.994 212.893L612.59 210.203H614.717L619.445 223H616.123ZM616 218.228V220.609H609.435V218.228H616ZM623.664 210.203V223H620.588V210.203H623.664Z" fill="white"/>
<path d="M1066 0H1348C1356.28 0 1363 6.71573 1363 15V282C1363 290.284 1356.28 297 1348 297H1066V0Z" fill="white"/>
<path d="M1247.58 219.839C1228.99 235.525 1204.71 208.412 1221.9 191.215L1248.68 164.439C1254.92 158.202 1258.42 149.742 1258.42 140.921C1258.42 132.1 1254.92 123.64 1248.68 117.403C1242.44 111.166 1233.98 107.662 1225.16 107.662C1216.34 107.662 1207.88 111.166 1201.64 117.403L1174.62 144.43C1157.35 161.706 1130.04 137.445 1145.65 118.684C1148.34 115.389 1152 113.033 1156.12 111.957L1195.12 101.507L1223.92 93.7893C1229.63 92.2179 1235.63 91.9689 1241.45 93.0614C1247.27 94.1538 1252.77 96.5588 1257.52 100.094C1258.72 100.976 1259.87 101.921 1260.96 102.926L1261.05 103.012C1261.39 103.329 1261.71 103.672 1262.07 103.989V104.022C1262.42 104.365 1262.76 104.721 1263.09 105.078L1263.13 105.111C1264.15 106.214 1265.1 107.373 1265.99 108.583C1269.51 113.331 1271.92 118.818 1273.01 124.631C1274.1 130.443 1273.86 136.428 1272.3 142.132L1264.57 170.955L1254.33 209.191C1253.25 213.36 1250.89 217.084 1247.58 219.839Z" fill="url(#paint0_linear_31_3)"/>
<path style="mix-blend-mode:overlay" d="M1262.1 173.674C1257.27 178.52 1251.48 182.303 1245.1 184.78C1238.72 187.257 1231.89 188.374 1225.06 188.059L1248.68 164.439C1254.92 158.201 1258.42 149.742 1258.42 140.921C1258.42 132.1 1254.92 123.64 1248.68 117.403C1242.44 111.165 1233.98 107.661 1225.16 107.661C1216.34 107.661 1207.88 111.165 1201.64 117.403L1178.03 141.016C1177.72 134.183 1178.84 127.36 1181.31 120.984C1183.79 114.608 1187.57 108.819 1192.41 103.988C1193.29 103.104 1194.19 102.265 1195.12 101.473L1223.92 93.756C1229.63 92.1846 1235.63 91.9357 1241.45 93.0281C1247.27 94.1205 1252.77 96.5255 1257.52 100.061C1258.72 100.943 1259.87 101.888 1260.96 102.893L1261.05 102.978C1261.39 103.295 1261.71 103.639 1262.07 103.955V103.988C1262.42 104.332 1262.76 104.688 1263.09 105.045L1263.13 105.078C1264.15 106.181 1265.1 107.34 1265.99 108.55C1269.52 113.302 1271.92 118.795 1273.02 124.613C1274.11 130.432 1273.86 136.423 1272.3 142.132L1264.57 170.955C1263.79 171.905 1262.95 172.803 1262.1 173.674Z" fill="url(#paint1_linear_31_3)"/>
<path d="M1278.56 120.347C1278.77 115.969 1278.05 111.595 1276.47 107.508C1274.89 103.42 1272.47 99.7098 1269.36 96.6146C1267.74 94.9946 1265.95 93.5598 1264.01 92.3368C1258.54 88.8374 1252.12 87.1256 1245.64 87.4385L1269.1 82.2893C1270.75 81.9242 1272.46 81.9045 1274.12 82.2314C1275.78 82.5583 1277.35 83.2248 1278.74 84.189C1280.13 85.1531 1281.3 86.394 1282.19 87.8337C1283.07 89.2734 1283.65 90.8808 1283.88 92.5547C1284.08 93.9929 1284.02 95.4552 1283.71 96.8721L1278.56 120.347Z" fill="url(#paint2_linear_31_3)"/>
<path d="M1239.57 155.335L1213.35 181.557C1209.49 185.416 1204.26 187.585 1198.8 187.586C1193.34 187.586 1188.11 185.419 1184.25 181.56C1180.39 177.701 1178.22 172.467 1178.22 167.009C1178.22 161.551 1180.39 156.317 1184.25 152.457L1210.47 126.289C1214.33 122.429 1219.56 120.261 1225.02 120.261C1230.48 120.261 1235.71 122.429 1239.57 126.289C1239.92 126.632 1240.24 126.982 1240.55 127.345C1243.95 131.271 1245.74 136.34 1245.56 141.532C1245.38 146.724 1243.24 151.656 1239.57 155.335Z" fill="url(#paint3_linear_31_3)"/>
<path d="M1262.14 150.958L1248.65 164.439C1254.79 158.182 1258.22 149.753 1258.17 140.986C1258.13 132.219 1254.63 123.823 1248.43 117.624C1242.23 111.425 1233.84 107.925 1225.07 107.885C1216.3 107.844 1207.87 111.268 1201.62 117.409L1215.1 103.922C1218.19 100.833 1221.86 98.3825 1225.89 96.7105C1229.93 95.0384 1234.25 94.1779 1238.62 94.1779C1242.99 94.1779 1247.31 95.0384 1251.35 96.7105C1255.39 98.3825 1259.05 100.833 1262.14 103.922C1263.56 105.341 1264.85 106.888 1265.99 108.544C1270.41 114.947 1272.45 122.698 1271.74 130.448C1271.04 138.198 1267.64 145.456 1262.14 150.958Z" fill="url(#paint4_linear_31_3)"/>
<path style="mix-blend-mode:overlay" d="M1239.58 155.336L1213.35 181.557C1211.28 183.674 1208.76 185.314 1205.99 186.363C1201.77 180.479 1199.35 173.498 1199.01 166.266C1198.68 159.034 1200.45 151.861 1204.12 145.615C1207.78 139.37 1213.17 134.32 1219.64 131.077C1226.12 127.834 1233.39 126.538 1240.59 127.345C1243.98 131.276 1245.77 136.346 1245.58 141.539C1245.39 146.731 1243.25 151.66 1239.58 155.336Z" fill="url(#paint5_linear_31_3)"/>
<path style="mix-blend-mode:overlay" d="M1278.56 120.347C1278.77 115.969 1278.05 111.595 1276.47 107.508C1274.89 103.42 1272.47 99.7098 1269.36 96.6146C1267.74 94.9946 1265.95 93.5598 1264.01 92.3368C1267.1 90.7859 1270.51 89.9964 1273.97 90.0343C1277.42 90.0722 1280.81 90.9364 1283.87 92.5546C1284.06 93.9928 1284 95.4552 1283.69 96.8721L1278.56 120.347Z" fill="url(#paint6_linear_31_3)"/>
<defs>
<linearGradient id="paint0_linear_31_3" x1="1182.16" y1="183.669" x2="1279.4" y2="86.4296" gradientUnits="userSpaceOnUse">
<stop stop-color="#212735"/>
<stop offset="1" stop-color="#0F79F4"/>
</linearGradient>
<linearGradient id="paint1_linear_31_3" x1="1196.66" y1="99.1262" x2="1266.66" y2="169.127" gradientUnits="userSpaceOnUse">
<stop stop-opacity="0.7"/>
<stop offset="1" stop-color="white"/>
</linearGradient>
<linearGradient id="paint2_linear_31_3" x1="1284.69" y1="99.3037" x2="1247.67" y2="106.156" gradientUnits="userSpaceOnUse">
<stop stop-color="#212735"/>
<stop offset="1" stop-color="#0F79F4"/>
</linearGradient>
<linearGradient id="paint3_linear_31_3" x1="1238.91" y1="126.934" x2="1185.05" y2="180.788" gradientUnits="userSpaceOnUse">
<stop stop-color="#212735"/>
<stop offset="1" stop-color="#48B2FF"/>
</linearGradient>
<linearGradient id="paint4_linear_31_3" x1="1220.12" y1="98.9077" x2="1267.16" y2="145.942" gradientUnits="userSpaceOnUse">
<stop stop-color="#0F79F4"/>
<stop offset="1" stop-color="#48B2FF"/>
</linearGradient>
<linearGradient id="paint5_linear_31_3" x1="1201.43" y1="184.406" x2="1235.9" y2="127.989" gradientUnits="userSpaceOnUse">
<stop stop-color="#212735"/>
<stop offset="1" stop-color="white"/>
</linearGradient>
<linearGradient id="paint6_linear_31_3" x1="1277.41" y1="118.144" x2="1273.75" y2="90.8079" gradientUnits="userSpaceOnUse">
<stop stop-opacity="0.7"/>
<stop offset="1" stop-color="white"/>
</linearGradient>
</defs>
</svg>
