<svg width="1363" height="163" viewBox="0 0 1363 163" fill="none" xmlns="http://www.w3.org/2000/svg">
<path d="M0 15C0 6.71573 6.71573 0 15 0H37V163H15C6.71573 163 0 156.284 0 148V15Z" fill="#424242"/>
<rect width="1097" height="163" transform="translate(37)" fill="#F0F0F0"/>
<path d="M101.906 53.9219L94.3945 51.2383V48.0859L104.602 52.375V54.6367L101.906 53.9219ZM94.3945 56.1719L101.918 53.4297L104.602 52.7852V55.0352L94.3945 59.3242V56.1719ZM123.867 58.2578V61H115.277V58.2578H123.867ZM116.414 43.9375V61H112.898V43.9375H116.414ZM132.516 58.1406V52.4922C132.516 52.0859 132.449 51.7383 132.316 51.4492C132.184 51.1523 131.977 50.9219 131.695 50.7578C131.422 50.5938 131.066 50.5117 130.629 50.5117C130.254 50.5117 129.93 50.5781 129.656 50.7109C129.383 50.8359 129.172 51.0195 129.023 51.2617C128.875 51.4961 128.801 51.7734 128.801 52.0938H125.426C125.426 51.5547 125.551 51.043 125.801 50.5586C126.051 50.0742 126.414 49.6484 126.891 49.2812C127.367 48.9062 127.934 48.6133 128.59 48.4023C129.254 48.1914 129.996 48.0859 130.816 48.0859C131.801 48.0859 132.676 48.25 133.441 48.5781C134.207 48.9062 134.809 49.3984 135.246 50.0547C135.691 50.7109 135.914 51.5312 135.914 52.5156V57.9414C135.914 58.6367 135.957 59.207 136.043 59.6523C136.129 60.0898 136.254 60.4727 136.418 60.8008V61H133.008C132.844 60.6562 132.719 60.2266 132.633 59.7109C132.555 59.1875 132.516 58.6641 132.516 58.1406ZM132.961 53.2773L132.984 55.1875H131.098C130.652 55.1875 130.266 55.2383 129.938 55.3398C129.609 55.4414 129.34 55.5859 129.129 55.7734C128.918 55.9531 128.762 56.1641 128.66 56.4062C128.566 56.6484 128.52 56.9141 128.52 57.2031C128.52 57.4922 128.586 57.7539 128.719 57.9883C128.852 58.2148 129.043 58.3945 129.293 58.5273C129.543 58.6523 129.836 58.7148 130.172 58.7148C130.68 58.7148 131.121 58.6133 131.496 58.4102C131.871 58.207 132.16 57.957 132.363 57.6602C132.574 57.3633 132.684 57.082 132.691 56.8164L133.582 58.2461C133.457 58.5664 133.285 58.8984 133.066 59.2422C132.855 59.5859 132.586 59.9102 132.258 60.2148C131.93 60.5117 131.535 60.7578 131.074 60.9531C130.613 61.1406 130.066 61.2344 129.434 61.2344C128.629 61.2344 127.898 61.0742 127.242 60.7539C126.594 60.4258 126.078 59.9766 125.695 59.4062C125.32 58.8281 125.133 58.1719 125.133 57.4375C125.133 56.7734 125.258 56.1836 125.508 55.668C125.758 55.1523 126.125 54.7188 126.609 54.3672C127.102 54.0078 127.715 53.7383 128.449 53.5586C129.184 53.3711 130.035 53.2773 131.004 53.2773H132.961ZM146.016 57.9648V48.3203H149.391V61H146.215L146.016 57.9648ZM146.391 55.3633L147.387 55.3398C147.387 56.1836 147.289 56.9688 147.094 57.6953C146.898 58.4141 146.605 59.0391 146.215 59.5703C145.824 60.0938 145.332 60.5039 144.738 60.8008C144.145 61.0898 143.445 61.2344 142.641 61.2344C142.023 61.2344 141.453 61.1484 140.93 60.9766C140.414 60.7969 139.969 60.5195 139.594 60.1445C139.227 59.7617 138.938 59.2734 138.727 58.6797C138.523 58.0781 138.422 57.3555 138.422 56.5117V48.3203H141.797V56.5352C141.797 56.9102 141.84 57.2266 141.926 57.4844C142.02 57.7422 142.148 57.9531 142.312 58.1172C142.477 58.2812 142.668 58.3984 142.887 58.4688C143.113 58.5391 143.363 58.5742 143.637 58.5742C144.332 58.5742 144.879 58.4336 145.277 58.1523C145.684 57.8711 145.969 57.4883 146.133 57.0039C146.305 56.5117 146.391 55.9648 146.391 55.3633ZM155.273 51.0273V61H151.898V48.3203H155.062L155.273 51.0273ZM154.781 54.2148H153.867C153.867 53.2773 153.988 52.4336 154.23 51.6836C154.473 50.9258 154.812 50.2812 155.25 49.75C155.688 49.2109 156.207 48.8008 156.809 48.5195C157.418 48.2305 158.098 48.0859 158.848 48.0859C159.441 48.0859 159.984 48.1719 160.477 48.3438C160.969 48.5156 161.391 48.7891 161.742 49.1641C162.102 49.5391 162.375 50.0352 162.562 50.6523C162.758 51.2695 162.855 52.0234 162.855 52.9141V61H159.457V52.9023C159.457 52.3398 159.379 51.9023 159.223 51.5898C159.066 51.2773 158.836 51.0586 158.531 50.9336C158.234 50.8008 157.867 50.7344 157.43 50.7344C156.977 50.7344 156.582 50.8242 156.246 51.0039C155.918 51.1836 155.645 51.4336 155.426 51.7539C155.215 52.0664 155.055 52.4336 154.945 52.8555C154.836 53.2773 154.781 53.7305 154.781 54.2148ZM170.66 58.5977C171.074 58.5977 171.441 58.5195 171.762 58.3633C172.082 58.1992 172.332 57.9727 172.512 57.6836C172.699 57.3867 172.797 57.0391 172.805 56.6406H175.98C175.973 57.5312 175.734 58.3242 175.266 59.0195C174.797 59.707 174.168 60.25 173.379 60.6484C172.59 61.0391 171.707 61.2344 170.73 61.2344C169.746 61.2344 168.887 61.0703 168.152 60.7422C167.426 60.4141 166.82 59.9609 166.336 59.3828C165.852 58.7969 165.488 58.1172 165.246 57.3438C165.004 56.5625 164.883 55.7266 164.883 54.8359V54.4961C164.883 53.5977 165.004 52.7617 165.246 51.9883C165.488 51.207 165.852 50.5273 166.336 49.9492C166.82 49.3633 167.426 48.9062 168.152 48.5781C168.879 48.25 169.73 48.0859 170.707 48.0859C171.746 48.0859 172.656 48.2852 173.438 48.6836C174.227 49.082 174.844 49.6523 175.289 50.3945C175.742 51.1289 175.973 52 175.98 53.0078H172.805C172.797 52.5859 172.707 52.2031 172.535 51.8594C172.371 51.5156 172.129 51.2422 171.809 51.0391C171.496 50.8281 171.109 50.7227 170.648 50.7227C170.156 50.7227 169.754 50.8281 169.441 51.0391C169.129 51.2422 168.887 51.5234 168.715 51.8828C168.543 52.2344 168.422 52.6367 168.352 53.0898C168.289 53.5352 168.258 54.0039 168.258 54.4961V54.8359C168.258 55.3281 168.289 55.8008 168.352 56.2539C168.414 56.707 168.531 57.1094 168.703 57.4609C168.883 57.8125 169.129 58.0898 169.441 58.293C169.754 58.4961 170.16 58.5977 170.66 58.5977ZM181.23 43V61H177.855V43H181.23ZM180.75 54.2148H179.824C179.832 53.332 179.949 52.5195 180.176 51.7773C180.402 51.0273 180.727 50.3789 181.148 49.832C181.57 49.2773 182.074 48.8477 182.66 48.543C183.254 48.2383 183.91 48.0859 184.629 48.0859C185.254 48.0859 185.82 48.1758 186.328 48.3555C186.844 48.5273 187.285 48.8086 187.652 49.1992C188.027 49.582 188.316 50.0859 188.52 50.7109C188.723 51.3359 188.824 52.0938 188.824 52.9844V61H185.426V52.9609C185.426 52.3984 185.344 51.957 185.18 51.6367C185.023 51.3086 184.793 51.0781 184.488 50.9453C184.191 50.8047 183.824 50.7344 183.387 50.7344C182.902 50.7344 182.488 50.8242 182.145 51.0039C181.809 51.1836 181.539 51.4336 181.336 51.7539C181.133 52.0664 180.984 52.4336 180.891 52.8555C180.797 53.2773 180.75 53.7305 180.75 54.2148ZM194.953 48.3203V61H191.566V48.3203H194.953ZM191.355 45.0156C191.355 44.5234 191.527 44.1172 191.871 43.7969C192.215 43.4766 192.676 43.3164 193.254 43.3164C193.824 43.3164 194.281 43.4766 194.625 43.7969C194.977 44.1172 195.152 44.5234 195.152 45.0156C195.152 45.5078 194.977 45.9141 194.625 46.2344C194.281 46.5547 193.824 46.7148 193.254 46.7148C192.676 46.7148 192.215 46.5547 191.871 46.2344C191.527 45.9141 191.355 45.5078 191.355 45.0156ZM202.043 61H198.645V47.1953C198.645 46.2344 198.832 45.4258 199.207 44.7695C199.59 44.1055 200.125 43.6055 200.812 43.2695C201.508 42.9258 202.332 42.7539 203.285 42.7539C203.598 42.7539 203.898 42.7773 204.188 42.8242C204.477 42.8633 204.758 42.9141 205.031 42.9766L204.996 45.5195C204.848 45.4805 204.691 45.4531 204.527 45.4375C204.363 45.4219 204.172 45.4141 203.953 45.4141C203.547 45.4141 203.199 45.4844 202.91 45.625C202.629 45.7578 202.414 45.957 202.266 46.2227C202.117 46.4883 202.043 46.8125 202.043 47.1953V61ZM204.574 48.3203V50.7109H196.758V48.3203H204.574ZM210.105 59.5703L213.469 48.3203H217.09L211.992 62.9102C211.883 63.2305 211.734 63.5742 211.547 63.9414C211.367 64.3086 211.121 64.6562 210.809 64.9844C210.504 65.3203 210.117 65.5938 209.648 65.8047C209.188 66.0156 208.621 66.1211 207.949 66.1211C207.629 66.1211 207.367 66.1016 207.164 66.0625C206.961 66.0234 206.719 65.9688 206.438 65.8984V63.4258C206.523 63.4258 206.613 63.4258 206.707 63.4258C206.801 63.4336 206.891 63.4375 206.977 63.4375C207.422 63.4375 207.785 63.3867 208.066 63.2852C208.348 63.1836 208.574 63.0273 208.746 62.8164C208.918 62.6133 209.055 62.3477 209.156 62.0195L210.105 59.5703ZM208.699 48.3203L211.453 57.5078L211.934 61.082L209.637 61.3281L205.078 48.3203H208.699Z" fill="#888888"/>
<path d="M118.594 98.4219V104.75H101.086V98.4219H118.594ZM103.828 84.875V119H95.6016V84.875H103.828ZM124.125 84.875V119H115.922V84.875H124.125ZM127.992 106.578V106.086C127.992 104.227 128.258 102.516 128.789 100.953C129.32 99.375 130.102 98.0078 131.133 96.8516C132.164 95.6953 133.438 94.7969 134.953 94.1562C136.469 93.5 138.219 93.1719 140.203 93.1719C142.203 93.1719 143.961 93.5 145.477 94.1562C147.008 94.7969 148.289 95.6953 149.32 96.8516C150.352 98.0078 151.133 99.375 151.664 100.953C152.195 102.516 152.461 104.227 152.461 106.086V106.578C152.461 108.422 152.195 110.133 151.664 111.711C151.133 113.273 150.352 114.641 149.32 115.812C148.289 116.969 147.016 117.867 145.5 118.508C143.984 119.148 142.234 119.469 140.25 119.469C138.266 119.469 136.508 119.148 134.977 118.508C133.445 117.867 132.164 116.969 131.133 115.812C130.102 114.641 129.32 113.273 128.789 111.711C128.258 110.133 127.992 108.422 127.992 106.578ZM135.891 106.086V106.578C135.891 107.531 135.961 108.422 136.102 109.25C136.242 110.078 136.477 110.805 136.805 111.43C137.133 112.039 137.578 112.516 138.141 112.859C138.703 113.203 139.406 113.375 140.25 113.375C141.078 113.375 141.766 113.203 142.312 112.859C142.875 112.516 143.32 112.039 143.648 111.43C143.977 110.805 144.211 110.078 144.352 109.25C144.492 108.422 144.562 107.531 144.562 106.578V106.086C144.562 105.164 144.492 104.297 144.352 103.484C144.211 102.656 143.977 101.93 143.648 101.305C143.32 100.664 142.875 100.164 142.312 99.8047C141.75 99.4453 141.047 99.2656 140.203 99.2656C139.375 99.2656 138.68 99.4453 138.117 99.8047C137.57 100.164 137.133 100.664 136.805 101.305C136.477 101.93 136.242 102.656 136.102 103.484C135.961 104.297 135.891 105.164 135.891 106.086ZM163.688 111.453L168.375 93.6406H173.32L171.562 102.57L166.922 119H162.961L163.688 111.453ZM161.836 93.6406L164.742 111.312L165.07 119H160.266L154.266 93.6406H161.836ZM177.492 110.938L180.422 93.6406H187.992L182.039 119H177.234L177.492 110.938ZM173.883 93.6406L178.617 111.406L179.344 119H175.336L170.789 102.617L169.102 93.6406H173.883ZM218.297 84.875V119H210.07V84.875H218.297ZM228.562 84.875V91.2266H200.039V84.875H228.562ZM225.773 106.578V106.086C225.773 104.227 226.039 102.516 226.57 100.953C227.102 99.375 227.883 98.0078 228.914 96.8516C229.945 95.6953 231.219 94.7969 232.734 94.1562C234.25 93.5 236 93.1719 237.984 93.1719C239.984 93.1719 241.742 93.5 243.258 94.1562C244.789 94.7969 246.07 95.6953 247.102 96.8516C248.133 98.0078 248.914 99.375 249.445 100.953C249.977 102.516 250.242 104.227 250.242 106.086V106.578C250.242 108.422 249.977 110.133 249.445 111.711C248.914 113.273 248.133 114.641 247.102 115.812C246.07 116.969 244.797 117.867 243.281 118.508C241.766 119.148 240.016 119.469 238.031 119.469C236.047 119.469 234.289 119.148 232.758 118.508C231.227 117.867 229.945 116.969 228.914 115.812C227.883 114.641 227.102 113.273 226.57 111.711C226.039 110.133 225.773 108.422 225.773 106.578ZM233.672 106.086V106.578C233.672 107.531 233.742 108.422 233.883 109.25C234.023 110.078 234.258 110.805 234.586 111.43C234.914 112.039 235.359 112.516 235.922 112.859C236.484 113.203 237.188 113.375 238.031 113.375C238.859 113.375 239.547 113.203 240.094 112.859C240.656 112.516 241.102 112.039 241.43 111.43C241.758 110.805 241.992 110.078 242.133 109.25C242.273 108.422 242.344 107.531 242.344 106.578V106.086C242.344 105.164 242.273 104.297 242.133 103.484C241.992 102.656 241.758 101.93 241.43 101.305C241.102 100.664 240.656 100.164 240.094 99.8047C239.531 99.4453 238.828 99.2656 237.984 99.2656C237.156 99.2656 236.461 99.4453 235.898 99.8047C235.352 100.164 234.914 100.664 234.586 101.305C234.258 101.93 234.023 102.656 233.883 103.484C233.742 104.297 233.672 105.164 233.672 106.086ZM266.086 84.875H279.516C282.141 84.875 284.422 85.2656 286.359 86.0469C288.297 86.8281 289.789 87.9844 290.836 89.5156C291.898 91.0469 292.43 92.9375 292.43 95.1875C292.43 97.1406 292.125 98.7734 291.516 100.086C290.906 101.398 290.055 102.484 288.961 103.344C287.883 104.188 286.625 104.883 285.188 105.43L282.492 106.953H271.219L271.172 100.602H279.516C280.562 100.602 281.43 100.414 282.117 100.039C282.805 99.6641 283.32 99.1328 283.664 98.4453C284.023 97.7422 284.203 96.9062 284.203 95.9375C284.203 94.9531 284.023 94.1094 283.664 93.4062C283.305 92.7031 282.773 92.1641 282.07 91.7891C281.383 91.4141 280.531 91.2266 279.516 91.2266H274.312V119H266.086V84.875ZM284.766 119L277.219 103.906L285.938 103.859L293.578 118.648V119H284.766ZM311.836 112.836V93.6406H319.758V119H312.352L311.836 112.836ZM312.586 107.68L314.648 107.633C314.648 109.336 314.445 110.914 314.039 112.367C313.633 113.805 313.031 115.055 312.234 116.117C311.453 117.18 310.484 118.008 309.328 118.602C308.188 119.18 306.867 119.469 305.367 119.469C304.117 119.469 302.969 119.297 301.922 118.953C300.891 118.594 300 118.039 299.25 117.289C298.5 116.523 297.914 115.547 297.492 114.359C297.086 113.156 296.883 111.719 296.883 110.047V93.6406H304.781V110.094C304.781 110.656 304.852 111.141 304.992 111.547C305.133 111.953 305.336 112.297 305.602 112.578C305.867 112.844 306.195 113.047 306.586 113.188C306.992 113.312 307.453 113.375 307.969 113.375C309.156 113.375 310.086 113.125 310.758 112.625C311.43 112.125 311.898 111.445 312.164 110.586C312.445 109.727 312.586 108.758 312.586 107.68ZM331.875 99.0547V119H323.977V93.6406H331.383L331.875 99.0547ZM330.938 105.453L329.086 105.5C329.086 103.562 329.32 101.836 329.789 100.32C330.258 98.7891 330.922 97.4922 331.781 96.4297C332.641 95.3672 333.664 94.5625 334.852 94.0156C336.055 93.4531 337.391 93.1719 338.859 93.1719C340.031 93.1719 341.102 93.3438 342.07 93.6875C343.055 94.0312 343.898 94.5859 344.602 95.3516C345.32 96.1172 345.867 97.1328 346.242 98.3984C346.633 99.6484 346.828 101.195 346.828 103.039V119H338.883V103.016C338.883 102 338.742 101.227 338.461 100.695C338.18 100.148 337.773 99.7734 337.242 99.5703C336.711 99.3672 336.062 99.2656 335.297 99.2656C334.484 99.2656 333.797 99.4219 333.234 99.7344C332.672 100.047 332.219 100.484 331.875 101.047C331.547 101.594 331.305 102.242 331.148 102.992C331.008 103.742 330.938 104.562 330.938 105.453ZM363.773 108.195H357.047C357.047 106.82 357.141 105.609 357.328 104.562C357.531 103.5 357.875 102.547 358.359 101.703C358.844 100.859 359.5 100.078 360.328 99.3594C361.062 98.75 361.695 98.1641 362.227 97.6016C362.758 97.0391 363.164 96.4688 363.445 95.8906C363.727 95.3125 363.867 94.6953 363.867 94.0391C363.867 93.2266 363.75 92.5625 363.516 92.0469C363.297 91.5312 362.961 91.1484 362.508 90.8984C362.07 90.6328 361.516 90.5 360.844 90.5C360.297 90.5 359.781 90.6328 359.297 90.8984C358.828 91.1641 358.445 91.5781 358.148 92.1406C357.852 92.6875 357.688 93.4141 357.656 94.3203H349.711C349.758 91.9922 350.273 90.1016 351.258 88.6484C352.258 87.1797 353.586 86.1094 355.242 85.4375C356.914 84.75 358.781 84.4062 360.844 84.4062C363.125 84.4062 365.086 84.7578 366.727 85.4609C368.367 86.1641 369.625 87.2109 370.5 88.6016C371.375 89.9766 371.812 91.6719 371.812 93.6875C371.812 95.0312 371.555 96.2031 371.039 97.2031C370.539 98.1875 369.859 99.1094 369 99.9688C368.156 100.812 367.211 101.719 366.164 102.688C365.258 103.484 364.641 104.297 364.312 105.125C363.984 105.938 363.805 106.961 363.773 108.195ZM356.086 115.32C356.086 114.195 356.492 113.258 357.305 112.508C358.117 111.742 359.172 111.359 360.469 111.359C361.766 111.359 362.82 111.742 363.633 112.508C364.445 113.258 364.852 114.195 364.852 115.32C364.852 116.445 364.445 117.391 363.633 118.156C362.82 118.906 361.766 119.281 360.469 119.281C359.172 119.281 358.117 118.906 357.305 118.156C356.492 117.391 356.086 116.445 356.086 115.32Z" fill="black"/>
<path d="M1134 0H1348C1356.28 0 1363 6.71573 1363 15V148C1363 156.284 1356.28 163 1348 163H1134V0Z" fill="#2F69A5"/>
<path d="M1260.62 78.8847C1263.81 78.8847 1266.93 79.805 1269.59 81.5293C1272.25 83.2536 1274.32 85.7044 1275.54 88.5718C1276.76 91.4391 1277.08 94.5943 1276.46 97.6383C1275.84 100.682 1274.3 103.478 1272.04 105.673C1269.78 107.868 1266.9 109.362 1263.77 109.968C1260.63 110.573 1257.39 110.262 1254.43 109.075C1251.48 107.887 1248.96 105.876 1247.18 103.295C1245.41 100.714 1244.46 97.6806 1244.46 94.5769C1244.46 90.4151 1246.16 86.4237 1249.19 83.4808C1252.22 80.538 1256.33 78.8847 1260.62 78.8847ZM1260.62 73.6539C1256.36 73.6539 1252.19 74.881 1248.65 77.1801C1245.11 79.4791 1242.35 82.7469 1240.72 86.57C1239.09 90.3932 1238.66 94.6001 1239.49 98.6588C1240.32 102.717 1242.37 106.446 1245.39 109.372C1248.4 112.298 1252.24 114.291 1256.41 115.098C1260.59 115.905 1264.92 115.491 1268.86 113.907C1272.79 112.324 1276.16 109.642 1278.52 106.201C1280.89 102.76 1282.15 98.7151 1282.15 94.5769C1282.15 89.0278 1279.88 83.706 1275.85 79.7821C1271.81 75.8583 1266.33 73.6539 1260.62 73.6539Z" fill="white"/>
<path d="M1274.08 47.5H1220.23C1218.8 47.5 1217.43 48.0511 1216.42 49.0321C1215.41 50.013 1214.85 51.3435 1214.85 52.7307V105.038C1214.85 106.426 1215.41 107.756 1216.42 108.737C1217.43 109.718 1218.8 110.269 1220.23 110.269H1231V105.038H1220.23V68.423H1279.46V52.7307C1279.46 51.3435 1278.89 50.013 1277.88 49.0321C1276.87 48.0511 1275.5 47.5 1274.08 47.5ZM1220.23 63.1922V52.7307H1274.08V63.1922H1220.23Z" fill="white"/>
<path d="M1255.23 86.731V102.423L1268.69 94.5771L1255.23 86.731Z" fill="white"/>
</svg>
